# Blender v2.82 (sub 7) OBJ File: 'Stadium_3.blend'
# www.blender.org
mtllib Stadium_3.mtl
o Cylinder
v 3.187261 0.481754 -2.297124
v 2.790040 0.481754 -0.987668
v 2.144990 0.481754 0.219133
v 1.276898 0.481754 1.276903
v 0.219127 0.481754 2.144991
v -0.987676 0.481754 2.790039
v -2.297133 0.481754 3.187256
v 2.432024 0.481754 -2.447350
v 2.078623 0.481754 -1.282347
v 1.504732 0.481754 -0.208674
v 0.732404 0.481754 0.732407
v -0.208680 0.481754 1.504733
v -1.282354 0.481754 2.078622
v -2.447358 0.481754 2.432019
v 2.432024 0.202486 -2.447350
v 2.078623 0.202486 -1.282347
v 1.504732 0.202486 -0.208674
v 0.732404 0.202486 0.732407
v -0.208680 0.202486 1.504733
v -1.282354 0.202486 2.078622
v -2.447358 0.202486 2.432019
v 1.913749 0.202486 -2.550442
v 1.590418 0.202486 -1.484569
v 1.065359 0.202486 -0.502254
v 0.358748 0.202486 0.358751
v -0.502259 0.202486 1.065359
v -1.484574 0.202486 1.590416
v -2.550449 0.202486 1.913744
v 1.913749 -0.054483 -2.550442
v 1.590418 -0.054483 -1.484569
v 1.065359 -0.054483 -0.502254
v 0.358748 -0.054483 0.358751
v -0.502259 -0.054483 1.065359
v -1.484574 -0.054483 1.590416
v -2.550449 -0.054483 1.913744
v 1.412771 -0.054483 -2.650093
v 1.118508 -0.054483 -1.680041
v 0.640651 -0.054483 -0.786036
v -0.002436 -0.054483 -0.002434
v -0.786039 -0.054483 0.640651
v -1.680046 -0.054483 1.118505
v -2.650099 -0.054483 1.412766
v 1.412771 -0.309664 -2.650093
v 1.118508 -0.309664 -1.680041
v 0.640651 -0.309664 -0.786036
v -0.002436 -0.309664 -0.002434
v -0.786039 -0.309664 0.640651
v -1.680046 -0.309664 1.118505
v -2.650099 -0.309664 1.412766
v 0.882625 -0.309664 -2.755546
v 0.619121 -0.309664 -1.886894
v 0.191215 -0.309664 -1.086340
v -0.384650 -0.309664 -0.384649
v -1.086342 -0.309664 0.191215
v -1.886898 -0.309664 0.619119
v -2.755550 -0.309664 0.882620
v 0.882625 -0.640181 -2.755546
v 0.619121 -0.640181 -1.886894
v 0.191215 -0.640181 -1.086340
v -0.384650 -0.640181 -0.384649
v -1.086342 -0.640181 0.191215
v -1.886898 -0.640181 0.619119
v -2.755550 -0.640181 0.882620
vt 0.108448 0.682016
vt 0.161345 0.647022
vt 0.113931 0.559198
vt 0.055155 0.583302
vt 0.055155 0.146296
vt 0.113931 0.170401
vt 0.161345 0.082576
vt 0.108448 0.047582
vt 0.084734 0.463903
vt 0.022338 0.476191
vt 0.074875 0.364799
vt 0.011257 0.364799
vt 0.084734 0.265696
vt 0.022338 0.253407
vt 0.717155 0.345923
vt 0.580842 0.345923
vt 0.580842 0.445045
vt 0.717155 0.445045
vt 0.580842 0.540395
vt 0.717155 0.540395
vt 0.580842 0.628309
vt 0.717155 0.628309
vt 0.717155 0.021179
vt 0.580842 0.021179
vt 0.580842 0.109093
vt 0.717155 0.109093
vt 0.580842 0.204443
vt 0.717155 0.204443
vt 0.580842 0.303565
vt 0.717155 0.303565
vt 0.268279 0.606779
vt 0.304579 0.582765
vt 0.261200 0.502413
vt 0.220865 0.518955
vt 0.234487 0.415227
vt 0.191668 0.423660
vt 0.225467 0.324556
vt 0.181809 0.324556
vt 0.234487 0.233885
vt 0.191668 0.225453
vt 0.261200 0.146699
vt 0.220865 0.130158
vt 0.304579 0.066348
vt 0.268279 0.042333
vt 0.862215 0.407176
vt 0.736786 0.407176
vt 0.736786 0.494413
vt 0.862215 0.494413
vt 0.736786 0.574847
vt 0.862215 0.574847
vt 0.862215 0.019377
vt 0.736786 0.019377
vt 0.736786 0.099810
vt 0.862215 0.099810
vt 0.736786 0.187047
vt 0.862215 0.187047
vt 0.736786 0.277735
vt 0.862215 0.277735
vt 0.862215 0.316489
vt 0.736786 0.316489
vt 0.331372 0.206269
vt 0.372761 0.214420
vt 0.397073 0.135072
vt 0.358084 0.119083
vt 0.436552 0.061944
vt 0.401464 0.038731
vt 0.401464 0.555149
vt 0.436553 0.531936
vt 0.397073 0.458808
vt 0.358085 0.474797
vt 0.372761 0.379460
vt 0.331372 0.387611
vt 0.364553 0.296940
vt 0.322352 0.296940
vt 0.277137 0.747233
vt 0.152581 0.747233
vt 0.152581 0.829768
vt 0.277137 0.829768
vt 0.152581 0.909163
vt 0.277137 0.909162
vt 0.152581 0.982365
vt 0.277137 0.982365
vt 0.133898 0.747233
vt 0.009342 0.747233
vt 0.009342 0.820436
vt 0.133898 0.820436
vt 0.009342 0.899830
vt 0.133898 0.899830
vt 0.009342 0.982365
vt 0.133898 0.982365
vt 0.995814 0.042786
vt 0.939997 0.060871
vt 0.982394 0.189138
vt 0.944091 0.201548
vt 0.983102 0.319573
vt 0.946077 0.331570
vt 0.984817 0.448773
vt 0.945637 0.461468
vt 0.995814 0.613272
vt 0.525302 0.505241
vt 0.562434 0.480677
vt 0.527081 0.415193
vt 0.485823 0.432113
vt 0.505311 0.344139
vt 0.461511 0.352765
vt 0.497960 0.270245
vt 0.453302 0.270245
vt 0.505311 0.196351
vt 0.461511 0.187726
vt 0.527081 0.125297
vt 0.485823 0.108377
vt 0.562434 0.059814
vt 0.525302 0.035249
vt 0.744046 0.665280
vt 0.582718 0.665280
vt 0.582718 0.739187
vt 0.744046 0.739187
vt 0.582718 0.810282
vt 0.744046 0.810282
vt 0.582718 0.875833
vt 0.744046 0.875833
vt 0.487214 0.609671
vt 0.325886 0.609671
vt 0.325886 0.675222
vt 0.487214 0.675222
vt 0.325886 0.746317
vt 0.487215 0.746317
vt 0.325886 0.820225
vt 0.487214 0.820225
vt 0.931625 0.613272
vt 0.931625 0.042786
vt 0.881448 0.194591
vt 0.920629 0.207286
vt 0.881888 0.324489
vt 0.918914 0.336486
vt 0.879902 0.454510
vt 0.918205 0.466921
vt 0.875809 0.595187
vn 0.0000 1.0000 0.0000
vn -0.9569 0.0000 -0.2903
vn -0.9239 0.0000 -0.3827
vn -0.8315 0.0000 -0.5556
vn -0.7071 0.0000 -0.7071
vn -0.5556 0.0000 -0.8315
vn -0.3827 0.0000 -0.9239
vn -0.2903 0.0000 -0.9569
vn -0.9808 0.0000 0.1951
vn 0.1951 0.0000 -0.9808
usemtl None
s 1
f 1/1/1 8/2/1 9/3/1 2/4/1
f 6/5/1 13/6/1 14/7/1 7/8/1
f 2/4/1 9/3/1 10/9/1 3/10/1
f 3/10/1 10/9/1 11/11/1 4/12/1
f 4/12/1 11/11/1 12/13/1 5/14/1
f 5/14/1 12/13/1 13/6/1 6/5/1
f 8/15/2 15/16/2 16/17/3 9/18/3
f 9/18/3 16/17/3 17/19/4 10/20/4
f 10/20/4 17/19/4 18/21/5 11/22/5
f 11/23/5 18/24/5 19/25/6 12/26/6
f 12/26/6 19/25/6 20/27/7 13/28/7
f 13/28/7 20/27/7 21/29/8 14/30/8
f 15/31/1 22/32/1 23/33/1 16/34/1
f 16/34/1 23/33/1 24/35/1 17/36/1
f 17/36/1 24/35/1 25/37/1 18/38/1
f 18/38/1 25/37/1 26/39/1 19/40/1
f 19/40/1 26/39/1 27/41/1 20/42/1
f 20/42/1 27/41/1 28/43/1 21/44/1
f 23/45/3 30/46/3 31/47/4 24/48/4
f 24/48/4 31/47/4 32/49/5 25/50/5
f 25/51/5 32/52/5 33/53/6 26/54/6
f 26/54/6 33/53/6 34/55/7 27/56/7
f 27/56/7 34/55/7 35/57/8 28/58/8
f 22/59/2 29/60/2 30/46/3 23/45/3
f 33/61/1 40/62/1 41/63/1 34/64/1
f 34/64/1 41/63/1 42/65/1 35/66/1
f 29/67/1 36/68/1 37/69/1 30/70/1
f 30/70/1 37/69/1 38/71/1 31/72/1
f 31/72/1 38/71/1 39/73/1 32/74/1
f 32/74/1 39/73/1 40/62/1 33/61/1
f 36/75/2 43/76/2 44/77/3 37/78/3
f 37/78/3 44/77/3 45/79/4 38/80/4
f 38/80/4 45/79/4 46/81/5 39/82/5
f 39/83/5 46/84/5 47/85/6 40/86/6
f 40/86/6 47/85/6 48/87/7 41/88/7
f 41/88/7 48/87/7 49/89/8 42/90/8
f 7/91/9 14/92/9 21/93/9 28/94/9 35/95/9 42/96/9 49/97/9 56/98/9 63/99/9
f 43/100/1 50/101/1 51/102/1 44/103/1
f 44/103/1 51/102/1 52/104/1 45/105/1
f 45/105/1 52/104/1 53/106/1 46/107/1
f 46/107/1 53/106/1 54/108/1 47/109/1
f 47/109/1 54/108/1 55/110/1 48/111/1
f 48/111/1 55/110/1 56/112/1 49/113/1
f 50/114/2 57/115/2 58/116/3 51/117/3
f 51/117/3 58/116/3 59/118/4 52/119/4
f 52/119/4 59/118/4 60/120/5 53/121/5
f 53/122/5 60/123/5 61/124/6 54/125/6
f 54/125/6 61/124/6 62/126/7 55/127/7
f 55/127/7 62/126/7 63/128/8 56/129/8
f 1/130/10 57/131/10 50/132/10 43/133/10 36/134/10 29/135/10 22/136/10 15/137/10 8/138/10
